<svg width="221" height="187" xmlns="http://www.w3.org/2000/svg">
 <!-- Created with Method Draw - http://github.com/duopixel/Method-Draw/ -->

 <g>
  <title>background</title>
  <rect fill="none" id="canvas_background" height="189" width="223" y="-1" x="-1"/>
  <g display="none" overflow="visible" y="0" x="0" height="100%" width="100%" id="canvasGrid">
   <rect fill="url(#gridpattern)" stroke-width="0" y="0" x="0" height="100%" width="100%"/>
  </g>
 </g>
 <g>
  <title>Layer 1</title>
  <!-- Created with Method Draw - http://github.com/duopixel/Method-Draw/ -->
  <g stroke="null" id="svg_35">
   <g stroke="null" transform="matrix(0.983285118154766,0,0,0.983285118154766,-33.66384524982368,-593.2914661470568) " id="svg_34">
    <title stroke="null" transform="translate(0,-1.5122662782669067) translate(0.8135992288589478,1.3559986352920532) translate(-0.41851806640625,-0.41851806640625) translate(-1.105433702468872,-3.869018077850342) translate(0.8973519802093506,-4.785876750946045) translate(0,0.5912784934043884) translate(0.5912784934043884,-0.5912784934043884) translate(0,1.1825569868087769) translate(-3.7666633129119873,6.9952311515808105) translate(3.5894086360931396,-215.36451721191406) translate(-300.47698974609375,84.74992370605469) translate(197.23617553710938,-67.79993438720703) translate(100.92945098876953,-14.638623237609863) translate(-18.490890502929688,65.55860900878906) translate(-651.9744262695312,242.72640991210938) translate(706.4960327148438,0) translate(0,509.5381164550781) ">Layer 1</title>
    <g stroke="null" id="svg_17">
     <path stroke="null" d="m233.203646,619.497482l19.11978,0c2.29196,0 4.19187,1.86976 4.19187,4.19187l0,8.95674c0,2.29197 -1.86975,4.19188 -4.19187,4.19188l-19.11978,0l0,-17.34049z" fill="#A4A9AD" id="svg_28"/>
     <path stroke="null" d="m233.203646,619.497482l8.92658,0l0,17.34049l-8.92658,0l0,-17.34049z" id="svg_27"/>
     <path stroke="null" d="m59.436836,619.497482l-19.11978,0c-2.29196,0 -4.19187,1.86976 -4.19187,4.19187l0,8.95674c0,2.29197 1.86976,4.19188 4.19187,4.19188l19.11978,0l0,-17.34049z" fill="#A4A9AD" id="svg_26"/>
     <path stroke="null" d="m50.510256,619.497482l8.92658,0l0,17.34049l-8.92658,0l0,-17.34049z" id="svg_25"/>
     <path stroke="null" d="m199.125806,567.415692l-21.32126,0l0,-16.94845c0,-3.52841 -2.98558,-6.54415 -6.54415,-6.54415l-49.91046,0c-3.52842,0 -6.54415,2.98558 -6.54415,6.54415l0,16.94845l-21.32127,0l0,-16.94845c0,-15.3501 12.48515,-27.86542 27.86542,-27.86542l49.91046,0c15.3501,0 27.86541,12.48516 27.86541,27.86542l0,16.94845z" fill="#A4A9AD" id="svg_24"/>
     <path stroke="null" d="m199.065496,548.597482l-21.53237,0c0.18095,0.60315 0.27142,1.2063 0.27142,1.86976l0,16.94845l21.32126,0l0,-16.94845c0,-0.6333 -0.03015,-1.23645 -0.06031,-1.86976zm-105.58098,1.86976l0,16.94845l21.32127,0l0,-16.94845c0,-0.6333 0.09047,-1.26661 0.27141,-1.86976l-21.53236,0c-0.03016,0.63331 -0.06032,1.23646 -0.06032,1.86976z" id="svg_23"/>
     <path stroke="null" d="m226.207136,565.787192c0,-5.66959 -4.64424,-10.31383 -10.31382,-10.31383l-139.14614,0c-5.66959,0 -10.31383,4.64424 -10.31383,10.31383l0,14.74696c0,5.66958 4.64424,10.31382 10.31383,10.31382l139.14614,0c5.66958,0 10.31382,-4.64424 10.31382,-10.31382l0,-14.74696z" fill="#D1D3D3" id="svg_22"/>
     <path stroke="null" d="m225.996036,563.766642l-159.38174,0c-0.12063,0.66347 -0.21111,1.32693 -0.21111,2.02055l0,14.74696c0,5.66958 4.64424,10.31382 10.31383,10.31382l139.14614,0c5.66958,0 10.31382,-4.64424 10.31382,-10.31382l0,-14.74696c0.03016,-0.69362 -0.03016,-1.35708 -0.18094,-2.02055z" id="svg_21"/>
     <path stroke="null" d="m55.848106,593.652602l0,182.93466c0,8.65516 7.08699,15.71199 15.712,15.71199l149.49012,0c8.65517,0 15.71199,-7.08698 15.71199,-15.71199l0,-182.93465l-180.9141,0l-0.00001,-0.00001z" fill="#D1D3D3" id="svg_20"/>
     <path stroke="null" d="m55.848106,767.841622l0,8.74564c0,8.65516 7.08699,15.71199 15.712,15.71199l149.49012,0c8.65517,0 15.71199,-7.08698 15.71199,-15.71199l0,-8.74564l-180.9141,0l-0.00001,0zm0,-174.18901l180.94427,0l0,22.37677l-180.94427,0l0,-22.37677z" id="svg_19"/>
     <path stroke="null" d="m249.096586,582.343592c0,-5.66959 -4.64424,-10.31382 -10.31383,-10.31382l-184.92503,0c-5.66959,0 -10.31383,4.64423 -10.31383,10.31382l0,10.6154c0,5.66958 4.64424,10.31382 10.31383,10.31382l184.92503,0c5.66959,0 10.31383,-4.64424 10.31383,-10.31382l0,-10.6154zm-102.77634,167.1925c-5.88069,0 -10.67572,-4.76487 -10.67572,-10.67571l0,-100.03202c0,-5.88069 4.76487,-10.67572 10.67572,-10.67572s10.67571,4.76487 10.67571,10.67572l0,100.06217c-0.03016,5.88069 -4.79502,10.64556 -10.67571,10.64556zm-49.30732,0c-5.88069,0 -10.67571,-4.76487 -10.67571,-10.67571l0,-100.03202c0,-5.88069 4.76487,-10.67572 10.67571,-10.67572c5.88069,0 10.67572,4.76487 10.67572,10.67572l0,100.06217c0,5.88069 -4.79503,10.64556 -10.67572,10.64556zm98.58447,0c-5.88069,0 -10.67571,-4.76487 -10.67571,-10.67571l0,-100.03202c0,-5.88069 4.76486,-10.67572 10.67571,-10.67572c5.88069,0 10.67571,4.76487 10.67571,10.67572l0,100.06217c0,5.88069 -4.76486,10.64556 -10.67571,10.64556z" fill="#A4A9AD" id="svg_18"/>
    </g>
   </g>
  </g>
  <!-- Created with Method Draw - http://github.com/duopixel/Method-Draw/ -->
 </g>
</svg>